<?xml version="1.0" standalone="no"?>
<!DOCTYPE svg PUBLIC "-//W3C//DTD SVG 20010904//EN"
 "http://www.w3.org/TR/2001/REC-SVG-20010904/DTD/svg10.dtd">
<svg version="1.0" xmlns="http://www.w3.org/2000/svg"
 width="512.000000pt" height="512.000000pt" viewBox="0 0 512.000000 512.000000"
 preserveAspectRatio="xMidYMid meet">
<metadata>
Created by potrace 1.11, written by Peter Selinger 2001-2013
</metadata>
<g transform="translate(0.000000,512.000000) scale(0.100000,-0.100000)"
fill="#000000" stroke="none">
<path d="M392 4230 c-71 -36 -115 -82 -151 -160 l-26 -55 0 -1460 0 -1460 24
-53 c15 -32 45 -72 81 -105 103 -96 -121 -87 2240 -87 2361 0 2137 -9 2240 87
36 33 66 73 81 105 l24 53 0 1460 0 1460 -26 55 c-36 78 -80 124 -151 160
l-61 30 -2107 0 -2107 0 -61 -30z m2708 -493 c145 -26 417 -78 437 -83 7 -2
20 -29 29 -61 14 -49 16 -91 11 -303 -3 -135 -8 -254 -12 -265 -6 -20 -10 -20
-92 -10 l-87 10 -13 78 c-35 210 -155 333 -379 389 -75 19 -116 22 -264 22
-212 1 -284 -13 -420 -80 -156 -78 -273 -214 -348 -409 -52 -137 -67 -229 -67
-425 1 -228 24 -339 107 -505 53 -104 86 -152 165 -236 168 -178 379 -259 643
-246 142 8 221 26 327 78 138 66 251 187 322 343 19 43 35 66 43 63 7 -2 46
-10 87 -18 l73 -13 -5 -55 c-11 -118 -109 -403 -155 -454 -39 -44 -210 -116
-371 -156 -295 -74 -666 -64 -913 25 -330 119 -590 372 -695 679 -42 123 -54
195 -59 370 -7 190 6 306 51 459 83 286 268 518 533 670 128 73 320 136 482
156 119 16 421 3 570 -23z"/>
</g>
</svg>
